<?xml version="1.0" encoding="UTF-8"?>
<svg width="1200pt" height="1200pt" version="1.1" viewBox="0 0 1200 1200" xmlns="http://www.w3.org/2000/svg">
 <path d="m988.8 600c0-54-26.398-100.8-67.199-133.2 1.1992-6 1.1992-10.801 1.1992-16.801 1.1992-48-15.602-92.398-48-124.8-32.398-32.398-76.801-49.199-124.8-48-6 0-12 1.1992-16.801 1.1992-31.199-40.801-79.199-67.199-133.2-67.199s-100.8 26.398-133.2 67.199c-51.602-7.1992-103.2 8.3984-141.6 46.801-38.398 38.398-52.801 90-46.801 141.6-40.801 31.199-67.199 79.199-67.199 133.2s26.398 100.8 67.199 133.2c-7.1992 51.602 8.3984 103.2 46.801 141.6 31.199 31.199 73.199 48 117.6 48h7.1992c6 0 10.801-1.1992 16.801-1.1992 31.199 40.801 79.199 67.199 133.2 67.199s102-26.398 133.2-67.199c7.1992 1.1992 15.602 1.1992 22.801 1.1992 45.602 0 87.602-16.801 118.8-48 32.398-32.398 49.199-76.801 48-124.8 0-6-1.1992-12-1.1992-16.801 40.797-32.398 67.199-79.199 67.199-133.2zm-238.8-313.2h6c43.199 0 82.801 15.602 111.6 45.602 31.199 31.199 46.801 73.199 45.602 117.6 0 3.6016 0 7.1992-1.1992 10.801-4.8008-3.6016-9.6016-6-14.398-9.6016v-2.3984c1.1992-40.801-13.199-79.199-40.801-106.8-26.398-26.398-62.398-40.801-100.8-40.801h-8.3984c-2.3984-4.8008-6-9.6016-8.3984-14.398 3.5938-0.003907 7.1914-0.003907 10.793-0.003907zm100.8 564c-26.398 26.398-62.398 39.602-98.398 38.398 12-25.199 19.199-54 19.199-85.199 0-12-1.1992-24-3.6016-34.801 12 2.3984 22.801 3.6016 34.801 3.6016 30 0 58.801-7.1992 85.199-19.199 2.3984 34.797-10.801 70.797-37.199 97.199zm-540-98.402c25.199 12 54 19.199 85.199 19.199 12 0 24-1.1992 34.801-3.6016-2.3984 12-3.6016 22.801-3.6016 34.801 0 30 7.1992 58.801 19.199 85.199-37.199 1.1992-72-12-98.398-38.398-25.199-25.199-38.398-61.199-37.199-97.199zm38.398-403.2c25.199-25.199 58.801-38.398 94.801-38.398h3.6016c-12 25.199-19.199 54-19.199 85.199 0 12 1.1992 24 3.6016 34.801-12-2.3984-22.801-3.6016-34.801-3.6016-30 0-58.801 7.1992-85.199 19.199-2.4023-37.199 11.996-72 37.195-97.199zm540 98.402c-25.199-12-54-19.199-85.199-19.199-12 0-24 1.1992-34.801 3.6016 2.3984-12 3.6016-22.801 3.6016-34.801 0-30-7.1992-58.801-19.199-85.199h3.6016c36 0 69.602 13.199 94.801 38.398 23.996 23.996 38.395 58.797 37.195 97.199zm-150 356.4c0 28.801-7.1992 56.398-21.602 79.199-25.199-7.1992-50.398-20.398-70.801-40.801-10.801-10.801-20.398-24-27.602-37.199 1.1992-3.6016 2.3984-7.1992 3.6016-10.801 37.199-4.8008 70.801-19.199 99.602-40.801 3.6016 1.1992 7.1992 3.6016 10.801 4.8008 3.6016 14.402 6 30 6 45.602zm-271.2-45.602c3.6016-1.1992 7.1992-2.3984 10.801-4.8008 27.602 21.602 62.398 37.199 99.602 40.801 1.1992 3.6016 2.3984 7.1992 3.6016 10.801-7.1992 13.199-16.801 26.398-27.602 37.199-20.398 20.398-44.398 34.801-70.801 42-13.199-22.801-21.602-50.398-21.602-79.199-1.1992-16.801 1.1992-32.398 6-46.801zm-7.1992-362.4c0-28.801 7.1992-56.398 21.602-79.199 26.398 7.1992 51.602 21.602 70.801 40.801 10.801 10.801 20.398 24 27.602 37.199-1.1992 3.6016-2.3984 7.1992-3.6016 10.801-37.199 4.8008-70.801 19.199-99.602 40.801-3.6016-1.1992-7.1992-3.6016-10.801-4.8008-3.6016-14.402-6-30-6-45.602zm271.2 45.602c-3.6016 1.1992-7.1992 2.3984-10.801 4.8008-27.602-21.602-62.398-37.199-99.602-40.801-1.1992-3.6016-2.3984-7.1992-3.6016-10.801 7.1992-13.199 16.801-26.398 27.602-37.199 20.398-20.398 44.398-34.801 70.801-40.801 13.199 22.801 21.602 50.398 21.602 79.199 1.1992 15.602-1.1992 31.199-6 45.602zm55.199 148.8c-4.8008 2.3984-9.6016 3.6016-15.602 4.8008 0-4.8008 0-10.801-1.1992-15.602 4.8008 1.1992 10.801 2.3984 15.602 4.8008 1.1992 1.2031 1.1992 3.6016 1.1992 6zm0 9.6016s-1.1992 0 0 0c-1.1992 0 0 0 0 0zm-1.1992 15.602c-4.8008 1.1992-10.801 3.6016-15.602 4.8008 0-4.8008 1.1992-9.6016 1.1992-15.602 4.8008 1.1992 9.6016 3.6016 15.602 4.8008 0 2.3984 0 4.7969-1.1992 6zm-46.801 109.2c-4.8008-2.3984-9.6016-4.8008-14.398-7.1992 3.6016-3.6016 7.1992-7.1992 9.6016-12 2.3984 4.8008 6 9.6016 8.3984 14.398-1.1992 2.3984-2.4023 3.6016-3.6016 4.8008zm-7.1992 7.1992m-12 10.801c-4.8008-2.3984-9.6016-4.8008-14.398-8.3984 3.6016-3.6016 8.3984-6 12-9.6016 2.3984 4.8008 4.8008 9.6016 7.1992 14.398-1.1992 1.1992-2.4023 2.4023-4.8008 3.6016zm-110.4 44.398c-2.3984-4.8008-3.6016-9.6016-4.8008-15.602 4.8008 0 10.801 0 15.602-1.1992-1.1992 4.8008-2.3984 10.801-4.8008 15.602-1.2031 1.1992-3.6016 1.1992-6 1.1992zm-25.203-1.1992c-1.1992-4.8008-3.6016-10.801-4.8008-15.602 4.8008 0 9.6016 1.1992 15.602 1.1992-1.1992 4.8008-3.6016 9.6016-4.8008 15.602-2.3984 0-4.7969 0-6-1.1992zm-109.2-46.801c2.3984-4.8008 4.8008-9.6016 7.1992-14.398 3.6016 3.6016 7.1992 7.1992 12 9.6016-4.8008 2.3984-9.6016 6-14.398 8.3984-2.3984-1.1992-3.6016-2.4023-4.8008-3.6016zm-7.1992-7.1992m-10.801-12c2.3984-4.8008 4.8008-9.6016 8.3984-14.398 3.6016 3.6016 6 8.3984 9.6016 12-4.8008 2.3984-9.6016 4.8008-14.398 7.1992-1.1992-1.1992-2.4023-2.4023-3.6016-4.8008zm-44.398-110.4c4.8008-2.3984 9.6016-3.6016 15.602-4.8008 0 4.8008 0 9.6016 1.1992 14.398-4.8008-1.1992-10.801-2.3984-15.602-4.8008-1.1992 0-1.1992-2.3984-1.1992-4.7969zm0-9.6016s1.1992 0 0 0c1.1992 0 0 0 0 0zm1.1992-15.602c4.8008-1.1992 10.801-3.6016 15.602-4.8008 0 4.8008-1.1992 9.6016-1.1992 15.602-4.8008-1.1992-9.6016-3.6016-15.602-4.8008 0-2.3984 0-4.7969 1.1992-6zm46.801-109.2c4.8008 2.3984 9.6016 4.8008 14.398 7.1992-3.6016 3.6016-7.1992 7.1992-9.6016 12-2.3984-4.8008-6-9.6016-8.3984-14.398 1.1992-2.3984 2.4023-3.6016 3.6016-4.8008zm7.1992-7.1992m12-10.801c4.8008 2.3984 9.6016 4.8008 14.398 8.3984-3.6016 3.6016-8.3984 6-12 9.6016-2.3984-4.8008-4.8008-9.6016-7.1992-14.398 1.1992-1.1992 2.4023-2.4023 4.8008-3.6016zm110.4-44.398c2.3984 4.8008 3.6016 9.6016 4.8008 15.602-4.8008 0-9.6016 0-15.602 1.1992 1.1992-4.8008 2.3984-10.801 4.8008-15.602 1.2031-1.1992 3.6016-1.1992 6-1.1992zm25.203 1.1992c1.1992 4.8008 3.6016 10.801 4.8008 15.602-4.8008 0-9.6016-1.1992-15.602-1.1992 1.1992-4.8008 3.6016-9.6016 4.8008-15.602 2.3984 0 4.7969 0 6 1.1992zm109.2 46.801c-2.3984 4.8008-4.8008 9.6016-7.1992 14.398-3.6016-3.6016-7.1992-7.1992-12-9.6016 4.8008-2.3984 9.6016-6 14.398-8.3984 2.3984 1.1992 3.6016 2.4023 4.8008 3.6016zm7.1992 7.1992m-67.199 61.199c-7.1992 3.6016-14.398 7.1992-22.801 9.6016 12-27.602 31.199-51.602 56.398-68.398 3.6016 3.6016 8.3984 6 12 9.6016-19.199 13.195-34.797 29.996-45.598 49.195zm33.598-27.598-9.6016 9.6016c3.6016-3.6016 6.0039-7.2031 9.6016-9.6016zm-73.199 60c-1.1992 2.3984-1.1992 4.7969-2.3984 7.1992-3.6016 0-7.1992 1.1992-10.801 1.1992-2.3984-2.3984-4.8008-6-7.1992-8.3984 1.1992-2.3984 2.3984-4.8008 3.6016-6 3.6016 0 6 0 9.6016-1.1992 2.3945 2.3984 4.7969 4.7969 7.1953 7.1992zm4.8008 38.398v0c0-1.1992 1.1992 0 1.1992 0-1.1992 0-1.1992 1.1992-1.1992 0v0zm-9.6016 8.3984c-2.3984 2.3984-3.6016 3.6016-6 6-2.3984 2.3984-3.6016 3.6016-6 6h-8.3984-8.3984c-2.3984-2.3984-3.6016-3.6016-6-6-2.3984-2.3984-3.6016-3.6016-6-6v-8.3984-8.3984c2.3984-2.3984 3.6016-3.6016 6-6 2.3984-2.3984 3.6016-3.6016 6-6h8.3984 8.3984c2.3984 2.3984 3.6016 3.6016 6 6 2.3984 2.3984 3.6016 3.6016 6 6v8.3984 8.3984zm1.2031 12v1.1992h-1.1992l1.1992-1.1992zm-20.402 9.6016-1.1992 1.1992-1.1992-1.1992h2.3984c-1.1992 0 0 0 0 0zm-21.598-9.6016v0c0 1.2031-1.2031 1.2031 0 0-1.2031 1.2031-1.2031 0 0 0-1.2031 0-1.2031 0 0 0zm-9.6016-20.398v0c0 1.1992-1.1992 0-1.1992 0 1.1992 0 1.1992-1.1992 1.1992 0v0zm8.3984-20.398v-1.1992h1.1992l-1.1992 1.1992zm20.402-9.6016 1.1992-1.1992 1.1992 1.1992h-2.3984c1.1992 0 0 0 0 0zm21.598 9.6016v0c0-1.2031 1.2031-1.2031 0 0 1.2031-1.2031 1.2031 0 0 0 1.2031 0 1.2031 0 0 0zm-15.598-33.602h-4.8008-4.8008c-1.1992-2.3984-2.3984-6-4.8008-8.3984 3.6016-6 6-12 8.3984-18 2.3984 6 4.8008 12 8.3984 18 0.003907 3.5977-1.1953 6-2.3945 8.3984zm-14.402 8.3984c1.1992 2.3984 2.3984 4.8008 3.6016 6-2.3984 2.3984-4.8008 6-7.1992 8.3984-3.6016 0-7.1992-1.1992-10.801-1.1992 0-2.3984-1.1992-4.8008-1.1992-7.1992 2.3984-2.3984 3.6016-4.8008 6-7.1992 3.5977 1.1992 6 1.1992 9.5977 1.1992zm-25.199 4.8008c-1.1992 1.1992-2.3984 2.3984-2.3984 3.6016-1.1992 1.1992-2.3984 2.3984-3.6016 2.3984-2.3984-1.1992-6-1.1992-8.3984-2.3984-2.3984-6-4.8008-13.199-7.1992-19.199 6 2.3984 12 4.8008 19.199 7.1992 0 2.3984 1.1992 4.8008 2.3984 8.3984zm-3.5977 15.602c2.3984 1.1992 4.8008 1.1992 7.1992 1.1992 0 3.6016 1.1992 7.1992 1.1992 10.801-2.3984 2.3984-6 4.8008-8.3984 7.1992-2.3984-1.1992-4.8008-2.3984-6-3.6016 0-3.6016 0-6-1.1992-9.6016 2.3984-1.1953 4.7969-3.5977 7.1992-5.9961zm-15.602 20.398v4.8008 4.8008c-2.3984 1.1992-6 2.3984-8.3984 4.8008-6-3.6016-12-6-18-8.3984 6-2.3984 12-4.8008 18-8.3984 3.5977-0.003907 6 1.1953 8.3984 2.3945zm8.3984 14.402c2.3984-1.1992 4.8008-2.3984 6-3.6016 2.3984 2.3984 6 4.8008 8.3984 7.1992 0 3.6016-1.1992 7.1992-1.1992 10.801-2.3984 0-4.8008 1.1992-7.1992 1.1992-2.3984-2.3984-4.8008-3.6016-7.1992-6 1.1992-3.5977 1.1992-6 1.1992-9.5977zm4.8008 25.199c1.1992 1.1992 2.3984 2.3984 3.6016 2.3984 1.1992 1.1992 2.3984 2.3984 2.3984 3.6016-1.1992 2.3984-1.1992 6-2.3984 8.3984-6 2.3984-13.199 4.8008-19.199 7.1992 2.3984-6 4.8008-12 7.1992-19.199 2.3984 0 4.8008-1.1992 8.3984-2.3984zm15.602 3.5977c1.1992-2.3984 1.1992-4.8008 1.1992-7.1992 3.6016 0 7.1992-1.1992 10.801-1.1992 2.3984 2.3984 4.8008 6 7.1992 8.3984-1.1992 2.3984-2.3984 4.8008-3.6016 6-3.6016 0-6 0-9.6016 1.1992-1.1953-2.3984-3.5977-4.7969-5.9961-7.1992zm20.398 15.602h4.8008 4.8008c1.1992 2.3984 2.3984 4.8008 4.8008 8.3984-3.6016 6-6 12-8.3984 18-2.3984-6-4.8008-12-8.3984-18-0.003907-3.5977 1.1953-6 2.3945-8.3984zm14.402-8.3984c-1.1992-2.3984-2.3984-4.8008-3.6016-6 2.3984-2.3984 4.8008-6 7.1992-8.3984 3.6016 0 7.1992 1.1992 10.801 1.1992 0 2.3984 1.1992 4.8008 1.1992 7.1992-2.3984 2.3984-3.6016 4.8008-6 7.1992-3.5977-1.1992-6-1.1992-9.5977-1.1992zm25.199-4.8008c1.1992-1.1992 2.3984-2.3984 2.3984-3.6016 1.1992-1.1992 2.3984-2.3984 3.6016-2.3984 2.3984 1.1992 6 1.1992 8.3984 2.3984 2.3984 6 4.8008 13.199 7.1992 19.199-6-2.3984-12-4.8008-19.199-7.1992 0-2.3984-1.1992-4.8008-2.3984-8.3984zm3.5977-15.602c-2.3984-1.1992-4.7969-1.1992-7.1992-2.3984 0-3.6016-1.1992-7.1992-1.1992-10.801 2.3984-2.3984 6-4.8008 8.3984-7.1992 2.3984 1.1992 4.8008 2.3984 6 3.6016 0 3.6016 0 6 1.1992 9.6016-2.3984 2.3945-4.7969 4.7969-7.1992 7.1953zm15.602-20.398v-4.8008-4.8008c2.3984-1.1992 4.8008-2.3984 8.3984-4.8008 6 3.6016 12 6 18 8.3984-6 2.3984-12 4.8008-18 8.3984-3.5977 0.003907-6-1.1953-8.3984-2.3945zm-8.3984-14.402c-2.3984 1.1992-4.8008 2.3984-6 3.6016-2.3984-2.3984-6-4.8008-8.3984-7.1992 0-3.6016 1.1992-7.1992 1.1992-10.801 2.3984 0 4.8008-1.1992 7.1992-1.1992 2.3984 2.3984 4.8008 3.6016 7.1992 6-1.1992 3.5977-1.1992 6-1.1992 9.5977zm-4.8008-25.199c-1.1992-1.1992-2.3984-2.3984-3.6016-2.3984-1.1992-1.1992-2.3984-2.3984-2.3984-3.6016 1.1992-2.3984 1.1992-6 2.3984-8.3984 6-2.3984 13.199-4.8008 19.199-7.1992-2.3984 6-4.8008 12-7.1992 19.199-2.3984 0-4.8008 1.1992-8.3984 2.3984zm-9.6016-22.801c-2.3984 1.1992-4.8008 1.1992-7.1992 1.1992-1.1992-2.3984-2.3984-4.8008-4.8008-7.1992 13.199-30 18-63.602 13.199-97.199 21.602 4.8008 42 13.199 58.801 24-27.598 21.602-48 48-60 79.199zm-18-15.598c-3.6016-7.1992-6-14.398-8.3984-22.801 3.6016-13.199 4.8008-27.602 4.8008-43.199 0-8.3984-1.1992-15.602-2.3984-24 4.8008 0 10.801 1.1992 15.602 1.1992 4.7969 31.199 1.1953 61.199-9.6055 88.801zm-13.199-66v13.199-13.199zm-4.8008 43.199c-2.3984 8.3984-4.8008 15.602-8.3984 22.801-8.3984-20.398-12-42-10.801-66 0-7.1992 1.1992-15.602 2.3984-22.801 4.8008-1.1992 10.801-1.1992 15.602-1.1992-4.8008 22.801-4.8008 45.598 1.1992 67.199zm-14.398 33.602c-1.1992 2.3984-2.3984 4.8008-4.8008 6-2.3984 0-4.8008-1.1992-7.1992-1.1992-12-31.199-32.398-57.602-60-78 18-12 37.199-20.398 58.801-24-1.1992 7.1992-1.1992 14.398-2.3984 21.602-0.003906 26.395 5.9961 52.797 15.598 75.598zm-22.801 1.1992c-7.1992-2.3984-15.602-6-22.801-9.6016-10.801-19.199-27.602-36-45.602-48 3.6016-3.6016 8.3984-7.1992 12-9.6016 25.203 16.801 44.402 39.602 56.402 67.203zm-46.801-27.602-9.6016-9.6016c3.6016 2.4023 6.0039 6.0039 9.6016 9.6016zm18 24c3.6016 7.1992 7.1992 14.398 9.6016 22.801-27.602-12-51.602-31.199-68.398-56.398 3.6016-3.6016 6-8.3984 9.6016-12 13.195 19.199 29.996 34.797 49.195 45.598zm13.199 33.602c1.1992 2.3984 1.1992 4.8008 1.1992 7.1992-2.3984 1.1992-4.8008 2.3984-7.1992 4.8008-30-13.199-63.602-18-97.199-13.199 4.8008-21.602 13.199-42 24-58.801 21.602 27.598 48 48 79.199 60zm-74.398 7.1992c20.398 0 40.801 3.6016 60 10.801-7.1992 3.6016-14.398 6-22.801 8.3984-21.602-6-44.398-6-67.199-1.1992 0-4.8008 1.1992-10.801 1.1992-15.602 9.6016-2.3984 19.199-2.3984 28.801-2.3984zm6 24h-12-1.1992 13.199zm-13.199 9.6016h6c13.199 0 25.199-1.1992 37.199-4.8008 8.3984 2.3984 15.602 4.8008 22.801 8.3984-18 7.1992-38.398 10.801-60 10.801-9.6016 0-19.199-1.1992-28.801-2.3984-1.1992-4.8008-1.1992-10.801-1.1992-15.602 8.3984 2.3984 16.801 2.3984 24 3.6016zm7.1992 24c25.199 0 48-4.8008 69.602-14.398 2.3984 1.1992 4.8008 2.3984 7.1992 4.8008 0 2.3984-1.1992 4.8008-1.1992 7.1992-31.199 12-57.602 32.398-78 60-12-18-20.398-37.199-24-58.801 7.1992-0.003906 16.797 1.1992 26.398 1.1992zm70.801 8.3984c-2.3984 7.1992-6 15.602-9.6016 22.801-19.199 10.801-36 27.602-48 45.602-3.6016-3.6016-7.1992-8.3984-9.6016-12 16.801-25.203 39.602-44.402 67.203-56.402zm-27.602 46.801-9.6016 9.6016c2.4023-3.6016 6.0039-6.0039 9.6016-9.6016zm24-18c7.1992-3.6016 14.398-7.1992 22.801-9.6016-12 27.602-31.199 51.602-56.398 68.398-3.6016-3.6016-8.3984-6-12-9.6016 19.199-13.195 34.797-29.996 45.598-49.195zm33.602-13.199c2.3984-1.1992 4.8008-1.1992 7.1992-1.1992 1.1992 2.3984 2.3984 4.8008 4.8008 6-10.801 24-15.602 49.199-14.398 76.801 0 7.1992 1.1992 13.199 2.3984 20.398-21.602-4.8008-40.801-13.199-58.801-24 26.398-20.402 46.801-46.801 58.801-78zm7.1992 81.598c-1.1992-22.801 3.6016-45.602 10.801-66 3.6016 7.1992 6 14.398 8.3984 22.801-3.6016 13.199-4.8008 27.602-4.8008 43.199 0 8.3984 1.1992 16.801 2.3984 24-4.8008 0-10.801-1.1992-15.602-1.1992 0.003907-8.3984-1.1953-15.602-1.1953-22.801zm24-1.1992v2.3984-2.3984-13.199 13.199zm4.8008-42c2.3984-8.3984 4.8008-15.602 8.3984-22.801 8.3984 20.398 12 43.199 10.801 66 0 7.1992-1.1992 15.602-2.3984 22.801-4.8008 1.1992-10.801 1.1992-15.602 1.1992 1.1992-8.3984 2.3984-15.602 2.3984-24 1.2031-15.598 0-30-3.5977-43.199zm14.398-33.602c1.1992-2.3984 2.3984-4.8008 4.8008-6 2.3984 0 4.8008 1.1992 7.1992 1.1992 12 31.199 32.398 57.602 60 78-18 12-37.199 20.398-58.801 24 1.1992-7.1992 1.1992-13.199 2.3984-20.398 0.003906-27.598-4.7969-52.801-15.598-76.801zm22.801-1.1992c7.1992 2.3984 15.602 6 22.801 9.6016 10.801 19.199 27.602 36 45.602 48-3.6016 3.6016-8.3984 7.1992-12 9.6016-25.203-16.801-44.402-39.602-56.402-67.203zm46.801 27.602 9.6016 9.6016c-3.6016-2.4023-6.0039-6.0039-9.6016-9.6016zm-18-24c-3.6016-7.1992-7.1992-14.398-9.6016-22.801 27.602 12 51.602 31.199 68.398 56.398-3.6016 3.6016-6 8.3984-9.6016 12-13.195-19.199-29.996-34.797-49.195-45.598zm-13.199-33.602c-1.1992-2.3984-1.1992-4.8008-1.1992-7.1992 2.3984-1.1992 4.8008-2.3984 6-4.8008 21.602 9.6016 45.602 14.398 69.602 14.398h7.1992c7.1992 0 13.199-1.1992 20.398-2.3984-4.8008 21.602-13.199 40.801-24 58.801-20.402-26.398-46.801-46.801-78-58.801zm81.598-7.1992c-22.801 1.1992-45.602-3.6016-66-10.801 7.1992-3.6016 14.398-6 22.801-8.3984 12 3.6016 24 4.8008 37.199 4.8008h6c8.3984 0 16.801-1.1992 24-2.3984 0 4.8008-1.1992 10.801-1.1992 15.602-8.3984-0.003907-15.602 1.1953-22.801 1.1953zm-14.398-24h7.1992 6 2.3984-2.3984-13.199zm13.199-9.6016c-14.398 0-28.801 1.1992-43.199 4.8008-8.3984-2.3984-15.602-4.8008-22.801-8.3984 18-7.1992 38.398-10.801 60-10.801h6c7.1992 0 15.602 1.1992 22.801 2.3984 1.1992 4.8008 1.1992 10.801 1.1992 15.602-7.1992-2.3984-15.602-2.3984-24-3.6016zm1.1992-24c-27.602-1.1992-52.801 3.6016-76.801 14.398-2.3984-1.1992-4.8008-2.3984-6-4.8008 0-2.3984 1.1992-4.8008 1.1992-7.1992 31.199-12 57.602-32.398 78-60 12 18 20.398 37.199 24 58.801-7.1992 0.003906-13.199-1.1992-20.398-1.1992zm-78-8.3984c2.3984-7.1992 6-15.602 9.6016-22.801 19.199-10.801 36-27.602 48-45.602 3.6016 3.6016 7.1992 8.3984 9.6016 12-16.801 25.203-39.602 44.402-67.203 56.402zm37.199-98.398c-20.398-14.398-43.199-24-68.398-28.801-1.1992-4.8008-2.3984-10.801-3.6016-15.602 32.398 4.8008 62.398 16.801 86.398 36-4.7969 2.4023-9.5977 4.8008-14.398 8.4023zm-98.398-45.602v0 0 0 0zm-30 16.801c-25.199 4.8008-48 14.398-68.398 28.801-4.8008-3.6016-9.6016-6-14.398-8.3984 25.199-19.199 55.199-31.199 86.398-36-1.2031 4.7969-2.4023 9.5977-3.6016 15.598zm-110.4 70.801c-14.398 20.398-24 43.199-28.801 68.398-4.8008 1.1992-10.801 2.3984-15.602 3.6016 4.8008-32.398 16.801-62.398 36-86.398 2.4023 4.7969 4.8008 9.5977 8.4023 14.398zm-28.801 128.4c4.8008 25.199 14.398 48 28.801 68.398-3.6016 4.8008-6 9.6016-8.3984 14.398-19.199-25.199-31.199-55.199-36-87.602 4.7969 2.4062 9.5977 3.6055 15.598 4.8047zm70.801 110.4c20.398 14.398 43.199 24 68.398 28.801 1.1992 6 2.3984 10.801 3.6016 15.602-32.398-4.8008-62.398-16.801-86.398-36 4.7969-2.4023 9.5977-4.8008 14.398-8.4023zm98.398 45.602v0 0 0 0zm30-16.801c25.199-4.8008 48-14.398 68.398-28.801 4.8008 3.6016 9.6016 6 14.398 8.3984-25.199 19.199-54 31.199-86.398 36 1.2031-4.7969 2.4023-9.5977 3.6016-15.598zm110.4-70.801c14.398-20.398 24-43.199 28.801-68.398 6-1.1992 10.801-2.3984 15.602-3.6016-4.8008 32.398-16.801 62.398-36 86.398-2.4023-4.7969-4.8008-9.5977-8.4023-14.398zm28.801-128.4c-4.8008-25.199-14.398-48-28.801-68.398 3.6016-4.8008 6-9.6016 8.3984-14.398 19.199 25.199 31.199 54 36 86.398-4.7969-1.2031-9.5977-2.4023-15.598-3.6016zm-34.801-76.801c-3.6016-3.6016-6-8.3984-9.6016-12 4.8008-2.3984 9.6016-4.8008 14.398-7.1992 1.1992 1.1992 2.3984 2.3984 3.6016 4.8008-2.3984 6-4.7969 10.801-8.3984 14.398zm7.2031-28.801c-2.3984-2.3984-3.6016-3.6016-6-6 1.1992-3.6016 2.3984-6 3.6016-9.6016 6-2.3984 12-3.6016 18-6-1.1992 6-3.6016 12-6 18-3.6016 1.2031-6.0039 2.4023-9.6016 3.6016zm-138-61.199h-3.6016-3.6016c-1.1992-3.6016-2.3984-6-4.8008-9.6016 2.3984-6 4.8008-10.801 8.3984-15.602 3.6016 4.8008 6 10.801 8.3984 16.801-1.1953 2.4023-3.5938 6.0039-4.793 8.4023zm-139.2 55.199c-2.3984 2.3984-3.6016 3.6016-6 6-3.6016-1.1992-6-2.3984-9.6016-3.6016-2.3984-6-3.6016-12-6-18 6 1.1992 12 3.6016 18 6 1.2031 3.6016 2.4023 6.0039 3.6016 9.6016zm-18 20.402c-21.602 27.602-37.199 62.398-40.801 99.602-3.6016 1.1992-7.1992 2.3984-10.801 3.6016-13.199-7.1992-26.398-16.801-37.199-27.602-20.398-20.398-34.801-44.398-42-70.801 22.801-13.199 50.398-21.602 79.199-21.602 15.602 0 31.199 2.3984 45.602 7.1992 2.4023 2.4023 4.8008 6 6 9.6016zm-43.199 117.6v3.6016 3.6016c-3.6016 1.1992-6 2.3984-9.6016 4.8008-6-2.3984-10.801-4.8008-16.801-8.3984 4.8008-3.6016 10.801-6 15.602-8.3984 4.8008 1.1953 8.4023 3.5938 10.801 4.793zm2.4023 26.402c4.8008 37.199 19.199 70.801 40.801 99.602-1.1992 3.6016-3.6016 7.1992-4.8008 10.801-14.398 4.8008-30 7.1992-45.602 7.1992-28.801 0-56.398-7.1992-79.199-21.602 7.1992-25.199 20.398-50.398 40.801-70.801 10.801-10.801 24-20.398 37.199-27.602 3.5977 0 7.1992 1.2031 10.801 2.4023zm52.797 112.8c2.3984 2.3984 3.6016 3.6016 6 6-1.1992 3.6016-2.3984 6-3.6016 9.6016-6 2.3984-12 3.6016-18 6 1.1992-6 3.6016-12 6-18 3.6016-1.2031 6.0039-2.4023 9.6016-3.6016zm138 61.199h3.6016 3.6016c1.1992 3.6016 2.3984 6 4.8008 9.6016-2.3984 6-4.8008 10.801-8.3984 16.801-3.6016-4.8008-6-10.801-8.3984-16.801 1.1953-3.6016 3.5938-7.2031 4.793-9.6016zm139.2-55.199c2.3984-2.3984 3.6016-3.6016 6-6 3.6016 1.1992 6 2.3984 9.6016 3.6016 2.3984 6 3.6016 12 6 18-6-1.1992-12-3.6016-18-6-1.2031-3.6016-2.4023-6.0039-3.6016-9.6016zm18-20.402c21.602-27.602 37.199-62.398 40.801-99.602 3.6016-1.1992 7.1992-2.3984 10.801-3.6016 13.199 7.1992 26.398 16.801 37.199 27.602 20.398 20.398 34.801 45.602 40.801 70.801-22.801 13.199-50.398 21.602-79.199 21.602-15.602 0-31.199-2.3984-45.602-7.1992-1.2031-2.4023-3.6016-6-4.8008-9.6016zm43.199-117.6v-3.6016-3.6016c3.6016-1.1992 6-2.3984 9.6016-4.8008 6 2.3984 10.801 4.8008 15.602 8.3984-4.8008 3.6016-10.801 6-16.801 8.3984-2.4023-1.1953-6.0039-3.5938-8.4023-4.793zm-2.4023-26.402c-4.8008-37.199-19.199-70.801-40.801-99.602 1.1992-3.6016 3.6016-7.1992 4.8008-10.801 14.398-4.8008 30-7.1992 45.602-7.1992 28.801 0 56.398 7.1992 79.199 21.602-7.1992 26.398-21.602 50.398-42 70.801-10.801 10.801-24 20.398-37.199 27.602-2.3984 0-6-1.2031-9.6016-2.4023zm9.6016-124.8c-14.398 0-28.801 2.3984-42 4.8008 2.3984-6 3.6016-10.801 4.8008-16.801 12-2.3984 24-3.6016 37.199-3.6016 30 0 58.801 7.1992 84 20.398 0 4.8008-1.1992 10.801-2.3984 15.602-22.801-13.195-51.602-20.398-81.602-20.398zm-40.801-56.398c0 13.199-1.1992 25.199-3.6016 37.199-6 1.1992-10.801 2.3984-16.801 4.8008 3.6016-13.199 4.8008-27.602 4.8008-42 0-30-7.1992-57.602-20.398-81.602 4.8008-1.1992 10.801-2.3984 15.602-2.3984 13.199 24 20.398 52.801 20.398 84zm-40.801-90c-2.3984-4.8008-6-9.6016-9.6016-13.199 6-1.1992 10.801-2.3984 16.801-3.6016 3.6016 4.8008 6 9.6016 9.6016 14.398-6 0.003906-12 1.2031-16.801 2.4023zm-9.5977 2.3984c-26.398 7.1992-52.801 22.801-73.199 43.199-10.801 10.801-19.199 21.602-26.398 33.602-2.3984-4.8008-4.8008-10.801-8.3984-15.602 7.1992-10.801 14.398-20.398 24-28.801 21.602-21.602 46.801-36 73.199-45.602 4.7969 3.6055 7.1953 8.4062 10.797 13.203zm-90 25.203c-8.3984 8.3984-15.602 18-22.801 27.602-7.1992-9.6016-14.398-19.199-22.801-27.602-21.598-21.602-46.801-37.203-73.199-45.602 25.199-26.398 58.801-42 96-42s70.801 15.602 96 42c-26.398 8.3984-51.602 25.199-73.199 45.602zm-51.602 7.1992c9.6016 9.6016 16.801 19.199 24 28.801-3.6016 4.8008-6 9.6016-8.3984 15.602-7.1992-12-15.602-22.801-26.398-33.602-20.398-20.398-45.602-34.801-73.199-43.199 3.6016-4.8008 6-8.3984 9.6016-13.199 26.395 8.3984 52.797 23.996 74.395 45.598zm-93.598-34.801c-4.8008-1.1992-10.801-2.3984-15.602-2.3984 2.3984-4.8008 6-9.6016 9.6016-14.398 6 1.1992 10.801 2.3984 16.801 3.6016-4.8008 3.5938-7.2031 8.3945-10.801 13.195zm-4.8008 8.3984c-13.199 24-20.398 51.602-20.398 81.602 0 14.398 2.3984 28.801 4.8008 42-6-2.3984-10.801-3.6016-16.801-4.8008-2.3984-12-3.6016-24-3.6016-37.199 0-30 7.1992-58.801 20.398-84 4.8008 0 10.801 1.1992 15.602 2.3984zm-76.801 122.4c13.199 0 25.199 1.1992 37.199 3.6016 1.1992 6 2.3984 10.801 4.8008 16.801-13.199-3.6016-27.602-4.8008-42-4.8008-30 0-57.602 7.1992-81.602 20.398-1.1992-4.8008-2.3984-10.801-2.3984-15.602 24-13.199 52.801-20.398 84-20.398zm-90 40.801c-4.8008 2.3984-9.6016 6-13.199 9.6016-1.1992-6-2.3984-10.801-3.6016-16.801 4.8008-3.6016 9.6016-6 14.398-9.6016 0.003906 6 1.2031 12 2.4023 16.801zm2.3984 9.5977c7.1992 26.398 22.801 51.602 43.199 72 10.801 10.801 21.602 19.199 33.602 26.398-4.8008 2.3984-9.6016 4.8008-15.602 8.3984-10.801-7.1992-20.398-14.398-28.801-24-21.602-21.602-37.199-46.801-45.602-73.199 3.6055-3.5977 8.4062-5.9961 13.203-9.5977zm25.203 90c8.3984 8.3984 18 15.602 27.602 22.801-9.6016 7.1992-19.199 14.398-27.602 22.801-21.602 21.598-37.203 46.801-45.602 73.199-26.398-25.199-42-58.801-42-96s15.602-70.801 42-96c8.3984 26.398 24 51.602 45.602 73.199zm7.1992 51.602c9.6016-9.6016 19.199-16.801 28.801-24 4.8008 3.6016 9.6016 6 15.602 8.3984-12 7.1992-22.801 15.602-33.602 26.398-21.602 21.602-36 46.801-43.199 73.199-4.8008-2.3984-8.3984-6-13.199-9.6016 8.3984-26.395 23.996-52.797 45.598-74.395zm-34.801 93.598c-1.1992 4.8008-2.3984 10.801-2.3984 15.602-4.8008-2.3984-9.6016-6-14.398-9.6016 1.1992-6 2.3984-10.801 3.6016-16.801 3.5938 4.8008 8.3945 7.2031 13.195 10.801zm8.3984 4.8008c24 13.199 51.602 20.398 81.602 20.398 14.398 0 28.801-2.3984 42-4.8008-2.3984 6-3.6016 10.801-4.8008 16.801-12 2.3984-24 3.6016-37.199 3.6016-30 0-58.801-7.1992-84-20.398 0-4.8008 1.1992-10.801 2.3984-15.602zm122.4 76.801c0-13.199 1.1992-25.199 3.6016-37.199 6-1.1992 10.801-2.3984 16.801-4.8008-3.6016 13.199-4.8008 27.602-4.8008 42 0 30 7.1992 57.602 20.398 81.602-4.8008 1.1992-10.801 2.3984-15.602 2.3984-13.199-24-20.398-52.801-20.398-84zm40.801 90c2.3984 4.8008 6 9.6016 9.6016 13.199-6 1.1992-10.801 2.3984-16.801 3.6016-3.6016-4.8008-6-9.6016-9.6016-14.398 6-0.003906 12-1.2031 16.801-2.4023zm9.5977-2.3984c26.398-7.1992 51.602-22.801 72-43.199 9.6016-9.6016 19.199-21.602 26.398-33.602 2.3984 4.8008 6 9.6016 8.3984 15.602-7.1992 10.801-14.398 20.398-24 28.801-21.602 21.602-46.801 36-73.199 45.602-3.5977-3.6055-5.9961-8.4062-9.5977-13.203zm90-25.203c8.3984-8.3984 15.602-18 22.801-27.602 7.1992 9.6016 14.398 19.199 22.801 27.602 20.398 20.398 46.801 37.199 73.199 45.602-25.199 26.398-58.801 42-96 42s-70.801-15.602-96-42c26.398-8.3984 51.602-24 73.199-45.602zm51.602-7.1992c-8.3984-8.3984-16.801-19.199-24-28.801 3.6016-4.8008 6-9.6016 8.3984-15.602 7.1992 12 15.602 22.801 26.398 33.602 21.602 21.602 46.801 36 73.199 43.199-2.3984 4.8008-6 8.3984-9.6016 13.199-27.594-8.3984-52.797-23.996-74.395-45.598zm93.598 34.801c4.8008 1.1992 10.801 2.3984 15.602 2.3984-2.3984 4.8008-6 9.6016-9.6016 14.398-6-1.1992-10.801-2.3984-16.801-3.6016 4.8008-3.5938 7.2031-8.3945 10.801-13.195zm4.8008-8.3984c13.199-24 20.398-51.602 20.398-81.602 0-14.398-2.3984-28.801-4.8008-42 6 2.3984 10.801 3.6016 16.801 4.8008 2.3984 12 3.6016 24 3.6016 37.199 0 30-7.1992 58.801-20.398 84-4.8008 0-10.801-1.1992-15.602-2.3984zm76.801-122.4c-13.199 0-25.199-1.1992-37.199-3.6016-1.1992-6-2.3984-10.801-4.8008-16.801 13.199 3.6016 27.602 4.8008 42 4.8008 30 0 57.602-7.1992 81.602-20.398 1.1992 4.8008 2.3984 10.801 2.3984 15.602-24 13.199-52.801 20.398-84 20.398zm90-40.801c4.8008-2.3984 9.6016-6 13.199-9.6016 1.1992 6 2.3984 10.801 3.6016 16.801-4.8008 3.6016-9.6016 6-14.398 9.6016-0.003906-6-1.2031-12-2.4023-16.801zm-2.3984-9.5977c-7.1992-26.398-21.602-51.602-43.199-73.199-9.6016-9.6016-21.602-19.199-33.602-26.398 4.8008-2.3984 9.6016-6 15.602-8.3984 10.801 7.1992 20.398 14.398 28.801 24 21.602 21.602 36 46.801 45.602 73.199-3.6055 4.7969-8.4062 7.1953-13.203 10.797zm-25.203-90c-8.3984-8.3984-18-15.602-27.602-22.801 9.6016-7.1992 19.199-14.398 27.602-22.801 21.602-21.602 37.199-46.801 46.801-73.199 26.398 25.199 42 58.801 42 96s-15.602 70.801-42 96c-9.5977-26.398-26.398-51.602-46.801-73.199zm-7.1992-51.602c-8.3984 8.3984-19.199 16.801-28.801 24-4.8008-3.6016-9.6016-6-15.602-8.3984 12-7.1992 22.801-15.602 33.602-26.398 20.398-20.398 36-45.602 43.199-72 4.8008 2.3984 8.3984 6 13.199 9.6016-8.3984 26.395-23.996 51.598-45.598 73.195zm34.801-93.598c1.1992-4.8008 2.3984-10.801 2.3984-15.602 4.8008 2.3984 9.6016 6 14.398 9.6016-1.1992 6-2.3984 10.801-3.6016 16.801-3.5938-3.6016-8.3945-7.2031-13.195-10.801zm-294-256.8c49.199 0 92.398 22.801 122.4 60-6 1.1992-10.801 2.3984-16.801 3.6016-26.398-30-64.801-48-105.6-48-42 0-79.199 19.199-105.6 48-6-1.1992-10.801-2.3984-16.801-3.6016 30.008-37.199 73.207-60 122.41-60zm-267.6 111.6c30-30 70.801-45.602 111.6-45.602 6 0 12 0 16.801 1.1992-3.6016 4.8008-6 9.6016-8.3984 14.398h-8.3984c-38.398 0-74.398 14.398-100.8 40.801-27.602 27.602-42 66-40.801 106.8v2.3984c-4.8008 2.3984-9.6016 6-14.398 8.3984-4.8047-46.793 9.5977-94.793 44.395-128.39zm-111.6 267.6c0-49.199 22.801-92.398 60-122.4 1.1992 6 2.3984 10.801 3.6016 16.801-30 26.398-48 64.801-48 105.6 0 40.801 19.199 79.199 48 105.6-1.1992 6-2.3984 10.801-3.6016 16.801-37.199-30.008-60-73.207-60-122.41zm229.2 313.2c-45.602 1.1992-87.602-14.398-117.6-45.602-34.801-34.801-49.199-81.602-44.398-128.4 4.8008 3.6016 9.6016 6 14.398 8.3984-2.3984 39.602 10.801 80.398 40.801 109.2 26.398 26.398 62.398 40.801 100.8 40.801h6 2.3984c2.3984 4.8008 6 9.6016 9.6016 14.398-4.8008 1.2031-8.3984 1.2031-12 1.2031zm150 66c-49.199 0-92.398-22.801-122.4-60 6-1.1992 10.801-2.3984 16.801-3.6016 26.398 30 64.801 48 105.6 48 42 0 79.199-19.199 105.6-48 6 1.1992 10.801 2.3984 16.801 3.6016-30.008 37.199-73.207 60-122.41 60zm313.2-229.2c1.1992 45.602-14.398 86.398-45.602 117.6-28.801 28.801-68.398 45.602-111.6 45.602-6 0-12 0-16.801-1.1992 3.6016-4.8008 6-9.6016 8.3984-14.398h8.3984c37.199 0 73.199-13.199 100.8-40.801 28.801-28.801 43.199-69.602 40.801-109.2 4.8008-2.3984 9.6016-6 14.398-8.3984 1.207 3.5938 1.207 7.1914 1.207 10.793zm6-27.602c-1.1992-6-2.3984-10.801-3.6016-16.801 30-26.398 48-64.801 48-105.6 0-42-18-79.199-48-105.6 1.1992-6 2.3984-10.801 3.6016-16.801 36 30 60 73.199 60 122.4 0 49.207-22.801 92.406-60 122.41z"/>
</svg>
